<svg width="100" height="22" viewBox="0 0 100 22" xmlns="http://www.w3.org/2000/svg"><path d="M100 11.744c0 5.303-3.731 9.917-9.091 9.917-6.186 0-9.917-4.614-9.917-9.917 0-6.129 3.731-10.744 9.917-10.744 5.36 0 9.091 4.614 9.091 10.744zm-53.719-8.264c0-.947-.907-2.123-2.479-2.479-.799-.198-1.706.287-2.479.826-1.11.983-2.226 1.813-3.306 2.479-1.85.303-3.524-.32-4.959-.826-1.007-1.085-1.984-2.262-3.306-2.479-1.538-.198-3.073.91-3.306 2.479-.116 1.129.373 1.821.826 2.479 1.22 1.418 2.267 2.802 3.306 4.132.635 1.645 1.333 3.237 1.653 4.959.656 1.461.656 3.191.826 4.959 1.365 2.453 5.62 2.246 6.612-.826.264-2.533.543-5.37 1.653-8.264.843-1.119 1.75-2.434 2.479-3.306 1.224-1.481 2.479-2.311 2.479-4.132zm27.273 0c0-.947-.907-2.123-2.479-2.479-.799-.198-1.706.287-2.479.826-1.11.983-2.226 1.813-3.306 2.479-1.85.303-3.524-.32-4.959-.826-1.007-1.085-1.984-2.262-3.306-2.479-1.538-.198-3.073.91-3.306 2.479-.116 1.129.373 1.821.826 2.479 1.22 1.418 2.267 2.802 3.306 4.132.635 1.645 1.333 3.237 1.653 4.959.656 1.461.656 3.191.826 4.959 1.365 2.453 5.62 2.246 6.612-.826.264-2.533.543-5.301 1.653-8.264.843-1.05 1.75-2.434 2.479-3.306 1.224-1.481 2.479-2.311 2.479-4.132zm-71.901 18.182c-2.777-1.006-1.491-6.819.826-12.397 3.034-5.842 5.336-8.264 7.438-8.264 1.353 0 4.062 2.353 6.612 8.264 2.191 5.577 3.614 11.322 1.653 12.397-3.864 1.209-5.015-6.058-9.091-5.785-2.765-.273-4.458 6.856-7.438 5.785z" fill="#fff"/></svg>