<svg width="201" height="45" viewBox="0 0 201 45" xmlns="http://www.w3.org/2000/svg"><path d="M22.697 35.106v-8.426h-12.072v-23.505h-9.639v31.931h21.711zm7.969-24.798c2.672 0 4.819-2.154 4.819-4.835s-2.147-4.835-4.819-4.835-4.819 2.154-4.819 4.835 2.147 4.835 4.819 4.835zm4.294 24.798v-23.122h-8.589v23.122h8.589zm19.707 0l8.923-23.122h-9.066l-4.438 13.213-4.39-13.213h-9.066l8.923 23.122h9.114zm21.854.574c3.436 0 7.539-.91 9.83-2.872l-3.531-5.314c-1.145 1.005-4.008 1.628-5.297 1.628-2.815 0-4.485-1.436-4.963-2.92h15.651v-1.771c0-8.138-5.201-13.021-11.977-13.021-7.444 0-12.549 5.41-12.549 12.112 0 7.612 5.631 12.16 12.836 12.16zm3.531-14.936h-7.587c.286-1.053 1.145-2.777 3.77-2.777 2.768 0 3.579 1.771 3.817 2.777zm23.667 14.936c8.541 0 13.742-4.069 13.742-11.106 0-11.872-17.703-9.287-17.703-12.303 0-.814.525-1.436 2.434-1.436 3.006 0 6.585 1.053 9.352 3.16l5.153-6.846c-3.626-2.968-8.303-4.452-13.504-4.452-8.732 0-13.217 5.17-13.217 10.58 0 12.59 17.751 9.479 17.751 12.543 0 1.245-1.718 1.723-3.531 1.723-4.294 0-7.873-1.819-10.259-4.117l-5.01 7.181c3.388 3.064 8.016 5.074 14.792 5.074zm25.91 0c2.911 0 4.915-.718 5.821-1.532l-1.527-6.511c-.191.191-.954.431-1.718.431-1.145 0-1.909-.957-1.909-2.154v-6.463h4.676v-7.468h-4.676v-6.319h-8.589v6.319h-3.817v7.468h3.817v8.952c0 4.835 2.815 7.277 7.921 7.277zm8.303 8.426c.811.239 2.72.383 3.34.383 4.867-.144 8.684-1.149 10.736-6.511l10.02-25.995h-9.066l-4.438 13.213-4.39-13.213h-9.066l9.066 23.505-.191.479c-.286.622-1.336.91-3.006.91-.573 0-1.288-.144-1.813-.431l-1.193 7.66zm34.356-9v-31.931h-8.589v31.931h8.589zm16.033.574c3.436 0 7.539-.91 9.83-2.872l-3.531-5.314c-1.145 1.005-4.008 1.628-5.297 1.628-2.815 0-4.485-1.436-4.963-2.92h15.651v-1.771c0-8.138-5.201-13.021-11.977-13.021-7.444 0-12.549 5.41-12.549 12.112 0 7.612 5.631 12.16 12.836 12.16zm3.531-14.936h-7.587c.286-1.053 1.145-2.777 3.77-2.777 2.768 0 3.579 1.771 3.817 2.777z"/><path stroke="#F6F6F6" stroke-width="3" fill="none" d="M-6.619 22.396c10.036-3.103 31.146-22.815 31.146-22.815M-6.245 35.744c18.642-4.281 41.499-30.957 46.702-39.826M18.523 36.509c15.06-10.278 30.844-28.58 36.047-37.449M88.471 1.528c24.586 4.397 81.221 31.414 99.018 49.333M136.612 8.761c22.795 10.862 40.622 20.629 60.143 36.118M148.927 5.717c22.795 10.862 40.078 22.302 59.599 37.791M156.779-.268c22.795 10.862 32.101 17.332 52.067 32.096M33.93 40.993c19.031-14.077 32.491-48.321 127.521 1.337M50.003 46.318c13.861-15.976 45.834-24.768 101.222 1.987"/></svg>