<svg width="73" height="73" viewBox="0 0 73 73" xmlns="http://www.w3.org/2000/svg"><g transform="translate(-6.5 0.5)" fill="none"><rect stroke="#2AB79A" fill="#F9F9F9" x="7" width="72" height="72" rx="10"/><g><path d="M67.805 33.432c.161-4.533-1.561-7.372-2.926-8.892-2.366-4.208-5.944-7.645-10.257-9.839-4.696-3.914-9.77-3.535-13.173-2.542-2.771.243-5.41.952-7.84 2.048-3.486.698-4.987 2.321-5.631 3.527-3.394 2.836-6.004 6.577-7.465 10.848-2.969 4.703-2.019 8.565-1.172 10.474.59 5.548 3.05 10.545 6.734 14.351 1.903 4.697 6.64 5.76 9.19 5.982 2.602.949 5.409 1.468 8.336 1.468 3.001 0 5.876-.547 8.534-1.544 8.861 1.187 11.057-7.401 11.343-8.731 2.843-3.99 4.522-8.863 4.522-14.124 0-1.025-.071-2.034-.195-3.025zm-38.881-14.273c.065-.118.163-.225.293-.318l.083-.059 3.05.383.059.134c.01.02.224.516-.038.993l-.112.164-.094.114-3.088-.476-.062-.076c-.125-.152-.285-.503-.091-.859zm-.117 8.534c.113-.074.248-.124.406-.146l.101-.013 2.522 1.755-.009.146c0 .022-.041.561-.495.862l-.175.093-.136.057-2.514-1.855-.02-.097c-.04-.193-.018-.579.32-.802zm-8.095 13.456c3.628 4.622 4.625 9.255 4.625 9.255.028.252.065.491.105.731-2.311-2.853-3.968-6.259-4.731-9.986zm1.491-7.196l1.236-2.813.145-.019c.022-.004.558-.067.941.32l.125.153.083.122-1.335 2.825-.09.038c-.182.076-.564.13-.849-.158-.095-.096-.169-.219-.222-.37l-.033-.097zm1.568-9.264c-.272.259-.53.517-.777.773 1.169-2.181 2.674-4.152 4.445-5.851-.459 1.906-3.668 5.078-3.668 5.078zm3.967 15.954l-.096-.02c-.194-.042-.539-.212-.612-.61-.024-.134-.016-.276.026-.431l.027-.098 2.607-1.626.131.065c.02.009.499.26.597.796l.016.197v.148l-2.697 1.58zm5.172 10.387l-.111.163-.093.114-3.09-.47-.062-.076c-.125-.153-.286-.503-.091-.858.065-.118.161-.225.292-.319l.083-.059 3.049.379.06.133c.011.019.225.516-.036.993zm20.729-25.267c.017-.013.461-.323.98-.162l.184.076.13.068.154 3.12-.062.076c-.124.153-.436.381-.823.261-.129-.04-.252-.114-.369-.223l-.074-.068-.239-3.064.119-.085zm-7.131-1.357l.028-.098 2.601-1.636.131.066c.02.009.5.258.6.792l.017.198v.147l-2.691 1.588-.096-.019c-.194-.038-.541-.209-.614-.607-.025-.132-.016-.276.024-.431zm-4.884-9.055c.068-.117.167-.221.3-.311l.084-.057 3.039.455.057.135c.009.02.211.521-.062.992l-.115.161-.095.112-3.075-.548-.061-.078c-.121-.156-.273-.51-.07-.861zm1.804 16.25c2.921 0 5.299 2.377 5.299 5.298 0 2.922-2.377 5.3-5.299 5.3-2.922 0-5.3-2.379-5.3-5.3s2.377-5.298 5.3-5.298zm-.715 20.65l3.005-.648.099.105c.016.015.382.413.294.95l-.051.191-.05.139-3.073.576-.083-.052c-.167-.102-.435-.381-.368-.781.021-.133.077-.265.17-.398l.058-.082zm-.038-8.036l.025-.144c.002-.022.101-.553.583-.805l.184-.073.14-.042 2.305 2.111.008.097c.019.197-.041.578-.403.764-.119.064-.258.097-.42.101l-.102.005-2.321-2.015zm-4.632-22.007l.027-.098 2.598-1.642.131.065c.021.009.5.256.601.791l.017.198v.148l-2.686 1.594-.097-.019c-.193-.039-.54-.208-.615-.606-.025-.132-.018-.276.023-.431zm-1.726 6.815l.129-.07c.019-.011.497-.263.993-.039l.172.099.121.085-.234 3.115-.071.068c-.142.136-.48.324-.85.157-.123-.055-.236-.144-.34-.267l-.065-.078.145-3.07zm-.978 16.763c-.008-.198.074-.574.445-.74.122-.056.263-.084.424-.079l.101.002 2.208 2.137-.033.141c-.003.023-.131.547-.626.771l-.188.064-.143.037-2.185-2.236-.004-.097zm1.731 8.816c.011-.02.327-.458.87-.481l.198.011.146.02 1.187 2.894-.034.09c-.066.186-.284.505-.691.52-.134.005-.275-.023-.423-.087l-.093-.039-1.245-2.811.084-.118zm6.529 5.219c-1.91 0-3.765-.236-5.544-.67 4.152-.866 11.189-.506 11.189-.506.293.095.574.173.855.25-2.065.599-4.245.926-6.5.926zm6.839-40.469c-.191-.049-.528-.236-.582-.638-.018-.134-.002-.277.047-.43l.032-.097 2.682-1.5.127.073c.02.01.486.283.558.822l.008.199-.009.148-2.769 1.448-.095-.024zm3.395 35.513c-.004.197-.108.568-.489.713-.124.049-.267.068-.428.054l-.1-.01-2.079-2.263.041-.14c.004-.022.163-.539.67-.734l.191-.052.146-.027 2.05 2.361-.002.098zm.229-8.246l-.084.052c-.166.105-.533.225-.863-.01-.112-.077-.205-.186-.284-.327l-.048-.089.73-2.985.139-.043c.021-.009.539-.163.983.15l.149.129.103.107-.825 3.015zm2.374-10.041c-.001.022-.073.559-.543.835l-.179.081-.139.051-2.41-1.995-.012-.098c-.028-.195.013-.578.365-.782.117-.069.253-.11.416-.124l.1-.007 2.419 1.895-.017.144zm.973-18.949c1.938 1.425 3.647 3.142 5.065 5.084-2.073-1.275-4.273-3.989-4.273-3.989-.261-.385-.525-.749-.792-1.096zm2.215 6.973l-1.131-2.857.089-.116c.013-.018.345-.444.889-.444l.198.019.145.027 1.068 2.936-.037.092c-.073.183-.304.492-.71.492-.135 0-.275-.035-.419-.103l-.091-.045zm2.31 22.008c-.089.174-.345.463-.75.426-.134-.011-.271-.058-.41-.14l-.086-.052-.877-2.946.099-.107c.012-.016.382-.412.924-.366l.194.037.142.039.81 3.019-.045.089zm-.514-10.141l-.097-.02c-.192-.034-.542-.198-.623-.597-.027-.133-.023-.275.015-.432l.025-.098 2.571-1.683.131.063c.022.008.505.249.618.781l.018.196.004.149-2.662 1.641zm2.111 12.161c.437-3.03 2.442-7.342 2.442-7.342.341-.846.628-1.654.866-2.435-.363 3.553-1.529 6.874-3.308 9.777z" fill="#2AB79A"/></g></g></svg>