<svg width="73" height="73" viewBox="0 0 73 73" xmlns="http://www.w3.org/2000/svg"><g transform="translate(0.5 0.5)" fill="none"><rect stroke="#2AB79A" fill="#F9F9F9" width="72" height="72" rx="10"/><path d="M55.961 59c-9.789-13.442-9.789-31.51 0-45l1.558 1.169c-9.253 12.76-9.253 29.903 0 42.662l-1.558 1.169zm-37.403 0l-1.558-1.169c9.253-12.76 9.253-29.903 0-42.662l1.558-1.169c9.789 13.442 9.789 31.558 0 45zm32.435-.097c-7.305-13.393-7.305-31.364 0-44.756l1.753.925c-7.013 12.808-7.013 30.049 0 42.906l-1.753.925zm-27.468 0l-1.753-.974c7.013-12.808 7.013-30.049 0-42.906l1.753-.925c7.256 13.393 7.256 31.412 0 44.805zm22.549-.146c-4.821-13.295-4.821-31.169 0-44.513l1.851.682c-4.675 12.906-4.675 30.244 0 43.149l-1.851.682zm-17.63 0l-1.851-.682c4.675-12.906 4.675-30.244 0-43.149l1.851-.682c4.821 13.295 4.821 31.218 0 44.513zm12.711-.146c-2.386-13.198-2.386-30.974 0-44.172l1.948.341c-2.386 13.003-2.386 30.487 0 43.49l-1.948.341zm-7.792 0l-1.948-.39c2.386-13.003 2.386-30.487 0-43.49l1.948-.341c2.386 13.247 2.386 30.974 0 44.221zm4.87-.195h-1.948v-43.831h1.948v43.831z" fill="#2AB79A"/></g></svg>