<svg width="73" height="73" viewBox="0 0 73 73" xmlns="http://www.w3.org/2000/svg"><g transform="translate(0.5 0.5)" fill="none"><rect stroke="#2AB79A" fill="#fff" width="72" height="72" rx="10"/><path d="M36.378 43.161c-3.649 0-6.689-2.994-6.689-6.661 0-3.667 3.041-6.661 6.689-6.661 3.649 0 6.689 2.994 6.689 6.661 0 3.667-2.919 6.661-6.689 6.661z" id="Shape" stroke="#2AB79A"/><path d="M36.804 17.067c6.446 0 12.101 3.178 15.568 8.128l1.095-.856c-3.709-5.256-9.851-8.617-16.784-8.617-6.811 0-12.831 3.3-16.601 8.433l1.095.856c3.709-4.828 9.243-7.944 15.628-7.944zm0 40.211c6.811 0 12.953-3.361 16.662-8.617l-1.095-.794c-3.466 4.828-9.182 8.067-15.568 8.067-6.324 0-11.858-3.117-15.446-7.822l-1.095.856c3.77 5.011 9.791 8.311 16.541 8.311zm0 5.378c-8.453 0-16.054-4.156-20.797-10.511l-1.095.856c5.047 6.6 13.014 11 21.953 11 9.122 0 17.149-4.522 22.074-11.367l-1.034-.856c-4.743 6.661-12.405 10.878-21.101 10.878zm0-52.311c8.635 0 16.358 4.339 21.101 10.817l1.095-.856c-5.047-6.844-13.074-11.306-22.196-11.306-9 0-16.966 4.4-21.953 11.183l1.095.856c4.743-6.539 12.284-10.694 20.858-10.694zm0 13.383c4.257 0 8.027 2.139 10.277 5.439l1.095-.856c-2.554-3.606-6.689-5.989-11.311-5.989-4.561 0-8.696 2.322-11.25 5.683l1.095.856c2.372-3.117 6.02-5.133 10.095-5.133zm0 26.889c4.622 0 8.757-2.383 11.311-5.867l-1.095-.856c-2.311 3.178-6.02 5.317-10.216 5.317-4.135 0-7.784-2.017-10.034-5.011l-1.095.794c2.676 3.361 6.568 5.622 11.128 5.622z" fill="#2AB79A"/></g></svg>